<svg xmlns="http://www.w3.org/2000/svg" width="133.333" height="133.333" version="1.0" viewBox="0 0 100 100"><path d="M29.9 7.3c-1.4 1-23.6 38.4-28.3 47.4-1.9 3.9-2 7-.3 10.3 5.5 10.2 16.1 27.6 17.5 28.6 1.3 1 8.6 1.3 31.4 1.4 29.5 0 29.7 0 31.8-2.2 1.9-2.1 8.1-12.2 13.3-21.8 1.1-1.9 2.6-4.4 3.3-5.5.8-1.1 1.4-3.3 1.4-4.9 0-3.6-10.1-21.8-13.3-24.1C85 35.3 81.4 35 69.4 35H54.3l3.3 3.6c1.9 1.9 3.4 3.9 3.4 4.4 0 .5 3.2 6.1 7 12.6 3.9 6.4 6.8 12 6.4 12.3-.3.3-11.7.6-25.4.6H24.2l2.6-4.5c1.4-2.5 3.1-5.2 3.8-6 .6-.8 2.3-3.8 3.8-6.5 1.4-2.8 4.1-7.5 5.8-10.6 1.8-3 6.8-11.7 11.2-19.1 4.3-7.5 8.8-14.1 10-14.6 1.5-.8-2.2-1.1-13.9-1.1-11.1 0-16.5.3-17.6 1.2z"/></svg>